<svg width="50" height="50" viewBox="0 0 50 50" fill="none" xmlns="http://www.w3.org/2000/svg">
<path d="M25 50C38.8071 50 50 38.8071 50 25C50 11.1929 38.8071 0 25 0C11.1929 0 0 11.1929 0 25C0 38.8071 11.1929 50 25 50Z" fill="#25AE88"/>
<path d="M45.631 39.1173C45.0646 33.6078 40.4103 29.3104 34.7509 29.3104H29.625C28.975 29.3104 28.4483 28.7836 28.4483 28.1336V27.5776C28.4483 27.075 28.775 26.6448 29.2457 26.4681C34.2491 24.5871 37.675 16.3785 36.9793 10.5776C36.3224 5.10261 31.8707 0.690539 26.3914 0.0776083C25.9457 0.0276083 25.5043 0.00347041 25.0681 0.00174627C25.0543 0.00174627 25.0405 0.000884204 25.0267 0.000884204C18.3491 -0.013771 12.931 5.39485 12.931 12.069C12.931 17.2621 16.2129 24.7888 20.8146 26.4905C21.2655 26.6569 21.5517 27.1052 21.5517 27.5862V28.1336C21.5517 28.7836 21.025 29.3104 20.375 29.3104H15.2491C9.58965 29.3104 4.93534 33.6078 4.36896 39.1173C8.87327 45.6879 16.4319 50 25 50C33.5681 50 41.1267 45.6879 45.631 39.1173Z" fill="#FBCE9D"/>
<path d="M28.8724 5.6983C32.075 6.57847 35.0905 8.5483 37.0216 11.1483C37.0078 10.9578 37.0017 10.763 36.9793 10.5767C36.3224 5.10261 31.8707 0.690539 26.3914 0.0776076C25.9457 0.0276076 25.5043 0.00346966 25.0681 0.00174552C25.0543 0.00174552 25.0405 0.000883452 25.0267 0.000883452C19.0612 -0.0120476 14.1129 4.30692 13.1233 9.98623H13.1276C13.2819 10.2035 13.4328 10.4233 13.5974 10.6328C13.6578 10.5578 13.719 10.4836 13.7811 10.4104C15.5052 8.35864 18.3854 7.88364 20.8354 8.96985C21.5811 9.29916 22.4069 9.48278 23.2759 9.48278C25.8121 9.48278 27.9793 7.91554 28.8724 5.6983Z" fill="#6B5B4B"/>
<path d="M45.631 39.1173C45.0646 33.6078 40.4103 29.3104 34.7509 29.3104H31.8965L25 36.2069L18.1034 29.3104H15.2491C9.58965 29.3104 4.93534 33.6078 4.36896 39.1173C8.87327 45.6879 16.4319 50 25 50C33.5681 50 41.1267 45.6879 45.631 39.1173Z" fill="#556080"/>
<path d="M37.069 46.8896C37.6595 46.5629 38.2328 46.2095 38.7931 45.8379V40.5172H37.069V46.8896Z" fill="#424A60"/>
<path d="M12.931 46.8896V40.5172H11.2069V45.8379C11.7673 46.2095 12.3405 46.5629 12.931 46.8896Z" fill="#424A60"/>
</svg>
